<?xml version="1.0" encoding="utf-8"?>
<!-- Generator: Adobe Illustrator 22.1.0, SVG Export Plug-In . SVG Version: 6.00 Build 0)  -->
<svg version="1.1" id="Calque_1" xmlns="http://www.w3.org/2000/svg" xmlns:xlink="http://www.w3.org/1999/xlink" x="0px" y="0px"
	 viewBox="0 0 433.4 432" style="enable-background:new 0 0 433.4 432;" xml:space="preserve">
<style type="text/css">
	.st0{fill:#FFFFFF;}
</style>
<polygon class="st0" points="430.8,213 430.8,213 423.6,205.8 416,198.2 416,198.3 217.2,0 156.2,60.7 156.1,60.6 0,215.6 
	88.8,304.8 131.9,348 215.6,432 216,431.6 216.4,432 301.5,347.6 301.6,347.7 320.5,328.8 320.5,328.8 320.8,328.5 305.7,313.7 
	302,310.2 302,310.3 228.8,237.1 228.8,237.1 228.7,237 174.9,290.8 192.3,308.2 227.2,273.2 282.8,328.9 282.6,329.1 282.6,329.1 
	282.6,329.1 216.1,395.4 37.1,215.7 109.8,143.2 216.1,37.3 253.6,75 184.8,143.8 203.5,162.5 272.3,93.7 396.2,218.1 328.9,285.4 
	346.2,302.8 433.4,215.6 "/>
</svg>
