<?xml version="1.0" encoding="utf-8"?>
<!-- Generator: Adobe Illustrator 22.1.0, SVG Export Plug-In . SVG Version: 6.00 Build 0)  -->
<svg version="1.1" id="Calque_1" xmlns="http://www.w3.org/2000/svg" xmlns:xlink="http://www.w3.org/1999/xlink" x="0px" y="0px"
	 viewBox="0 0 368.3 362" style="enable-background:new 0 0 368.3 362;" xml:space="preserve">
<style type="text/css">
	.st0{fill:#FADE17;}
</style>
<g>
	<path class="st0" d="M272.4,25.4C269.5,10.9,256.7,0,241.3,0c-3.5,0-6.3,2.8-6.3,6.4c0,3.5,2.8,6.4,6.3,6.4
		c10.5,0,19.1,8.5,19.1,19s-8.6,19-19.1,19c-3.5,0-6.3,2.9-6.3,6.4c0,3.5,2.8,6.4,6.3,6.4c15.4,0,28.2-10.9,31.1-25.4h83.2v57.1
		H12.7V38.1h107.9c3.5,0,6.4-2.9,6.4-6.4c0-3.5-2.9-6.4-6.4-6.4h-11.5c2.6-7.4,9.6-12.7,17.9-12.7c10.5,0,19,8.5,19,19
		s-8.5,19-19,19c-3.5,0-6.4,2.9-6.4,6.4c0,3.5,2.9,6.4,6.4,6.4c17.5,0,31.8-14.2,31.8-31.8S144.5,0,127,0
		c-15.3,0-28.2,10.9-31.1,25.4H0V362h368.3V25.4H272.4z M355.6,349.3H12.7V108h342.9L355.6,349.3L355.6,349.3L355.6,349.3z"/>
	<path class="st0" d="M165.1,12.7c10.5,0,19,8.5,19,19s-8.5,19-19,19c-3.5,0-6.4,2.9-6.4,6.4c0,3.5,2.9,6.4,6.4,6.4
		c17.5,0,31.8-14.2,31.8-31.8S182.6,0,165.1,0c-3.5,0-6.4,2.8-6.4,6.4C158.8,9.9,161.6,12.7,165.1,12.7L165.1,12.7z"/>
	<path class="st0" d="M203.2,12.7c10.5,0,19,8.5,19,19s-8.6,19-19,19c-3.5,0-6.4,2.9-6.4,6.4c0,3.5,2.8,6.4,6.4,6.4
		c17.5,0,31.8-14.2,31.8-31.8S220.7,0,203.2,0c-3.5,0-6.4,2.8-6.4,6.4C196.9,9.9,199.7,12.7,203.2,12.7L203.2,12.7z"/>
	<path class="st0" d="M146,152.4c0,3.5-2.8,6.4-6.3,6.4c-3.5,0-6.4-2.9-6.4-6.4c0-3.5,2.8-6.4,6.4-6.4
		C143.2,146,146,148.9,146,152.4L146,152.4z"/>
	<path class="st0" d="M190.5,152.4c0,3.5-2.9,6.4-6.4,6.4c-3.5,0-6.4-2.9-6.4-6.4c0-3.5,2.9-6.4,6.4-6.4
		C187.7,146,190.5,148.9,190.5,152.4L190.5,152.4z"/>
	<path class="st0" d="M235,152.4c0,3.5-2.9,6.4-6.4,6.4c-3.5,0-6.4-2.9-6.4-6.4c0-3.5,2.9-6.4,6.4-6.4
		C232.1,146,235,148.9,235,152.4L235,152.4z"/>
	<path class="st0" d="M279.4,152.4c0,3.5-2.8,6.4-6.4,6.4c-3.5,0-6.3-2.9-6.3-6.4c0-3.5,2.8-6.4,6.3-6.4
		C276.6,146,279.4,148.9,279.4,152.4L279.4,152.4z"/>
	<path class="st0" d="M323.9,152.4c0,3.5-2.9,6.4-6.4,6.4s-6.4-2.9-6.4-6.4c0-3.5,2.9-6.4,6.4-6.4S323.9,148.9,323.9,152.4
		L323.9,152.4z"/>
	<path class="st0" d="M57.1,203.2c0,3.5-2.8,6.3-6.4,6.3c-3.5,0-6.3-2.8-6.3-6.3c0-3.5,2.8-6.4,6.3-6.4
		C54.3,196.9,57.1,199.7,57.1,203.2L57.1,203.2z"/>
	<path class="st0" d="M101.6,203.2c0,3.5-2.9,6.3-6.4,6.3c-3.5,0-6.4-2.8-6.4-6.3c0-3.5,2.9-6.4,6.4-6.4
		C98.8,196.9,101.6,199.7,101.6,203.2L101.6,203.2z"/>
	<path class="st0" d="M146,203.2c0,3.5-2.8,6.3-6.3,6.3c-3.5,0-6.4-2.8-6.4-6.3c0-3.5,2.8-6.4,6.4-6.4
		C143.2,196.9,146,199.7,146,203.2L146,203.2z"/>
	<path class="st0" d="M190.5,203.2c0,3.5-2.9,6.3-6.4,6.3c-3.5,0-6.4-2.8-6.4-6.3c0-3.5,2.9-6.4,6.4-6.4
		C187.7,196.9,190.5,199.7,190.5,203.2L190.5,203.2z"/>
	<path class="st0" d="M235,203.2c0,3.5-2.9,6.3-6.4,6.3c-3.5,0-6.4-2.8-6.4-6.3c0-3.5,2.9-6.4,6.4-6.4
		C232.1,196.9,235,199.7,235,203.2L235,203.2z"/>
	<path class="st0" d="M279.4,203.2c0,3.5-2.8,6.3-6.4,6.3c-3.5,0-6.3-2.8-6.3-6.3c0-3.5,2.8-6.4,6.3-6.4
		C276.6,196.9,279.4,199.7,279.4,203.2L279.4,203.2z"/>
	<path class="st0" d="M323.9,203.2c0,3.5-2.9,6.3-6.4,6.3s-6.4-2.8-6.4-6.3c0-3.5,2.9-6.4,6.4-6.4S323.9,199.7,323.9,203.2
		L323.9,203.2z"/>
	<path class="st0" d="M57.1,247.7c0,3.5-2.8,6.4-6.4,6.4c-3.5,0-6.3-2.9-6.3-6.4c0-3.5,2.8-6.4,6.3-6.4
		C54.3,241.3,57.1,244.2,57.1,247.7L57.1,247.7z"/>
	<path class="st0" d="M101.6,247.7c0,3.5-2.9,6.4-6.4,6.4c-3.5,0-6.4-2.9-6.4-6.4c0-3.5,2.9-6.4,6.4-6.4
		C98.8,241.3,101.6,244.2,101.6,247.7L101.6,247.7z"/>
	<path class="st0" d="M146,247.7c0,3.5-2.8,6.4-6.3,6.4c-3.5,0-6.4-2.9-6.4-6.4c0-3.5,2.8-6.4,6.4-6.4
		C143.2,241.3,146,244.2,146,247.7L146,247.7z"/>
	<path class="st0" d="M190.5,247.7c0,3.5-2.9,6.4-6.4,6.4c-3.5,0-6.4-2.9-6.4-6.4c0-3.5,2.9-6.4,6.4-6.4
		C187.7,241.3,190.5,244.2,190.5,247.7L190.5,247.7z"/>
	<path class="st0" d="M235,247.7c0,3.5-2.9,6.4-6.4,6.4c-3.5,0-6.4-2.9-6.4-6.4c0-3.5,2.9-6.4,6.4-6.4
		C232.1,241.3,235,244.2,235,247.7L235,247.7z"/>
	<path class="st0" d="M279.4,247.7c0,3.5-2.8,6.4-6.4,6.4c-3.5,0-6.3-2.9-6.3-6.4c0-3.5,2.8-6.4,6.3-6.4
		C276.6,241.3,279.4,244.2,279.4,247.7L279.4,247.7z"/>
	<path class="st0" d="M323.9,247.7c0,3.5-2.9,6.4-6.4,6.4s-6.4-2.9-6.4-6.4c0-3.5,2.9-6.4,6.4-6.4S323.9,244.2,323.9,247.7
		L323.9,247.7z"/>
	<path class="st0" d="M57.1,298.5c0,3.5-2.8,6.3-6.4,6.3c-3.5,0-6.3-2.8-6.3-6.3c0-3.5,2.8-6.4,6.3-6.4
		C54.3,292.1,57.1,295,57.1,298.5L57.1,298.5z"/>
	<path class="st0" d="M101.6,298.5c0,3.5-2.9,6.3-6.4,6.3c-3.5,0-6.4-2.8-6.4-6.3c0-3.5,2.9-6.4,6.4-6.4
		C98.8,292.1,101.6,295,101.6,298.5L101.6,298.5z"/>
	<path class="st0" d="M146,298.5c0,3.5-2.8,6.3-6.3,6.3c-3.5,0-6.4-2.8-6.4-6.3c0-3.5,2.8-6.4,6.4-6.4
		C143.2,292.1,146,295,146,298.5L146,298.5z"/>
	<path class="st0" d="M190.5,298.5c0,3.5-2.9,6.3-6.4,6.3c-3.5,0-6.4-2.8-6.4-6.3c0-3.5,2.9-6.4,6.4-6.4
		C187.7,292.1,190.5,295,190.5,298.5L190.5,298.5z"/>
	<path class="st0" d="M235,298.5c0,3.5-2.9,6.3-6.4,6.3c-3.5,0-6.4-2.8-6.4-6.3c0-3.5,2.9-6.4,6.4-6.4
		C232.1,292.1,235,295,235,298.5L235,298.5z"/>
</g>
</svg>
