<?xml version="1.0" encoding="utf-8"?>
<!-- Generator: Adobe Illustrator 22.1.0, SVG Export Plug-In . SVG Version: 6.00 Build 0)  -->
<svg version="1.1" id="Calque_1" xmlns="http://www.w3.org/2000/svg" xmlns:xlink="http://www.w3.org/1999/xlink" x="0px" y="0px"
	 viewBox="0 0 432 432" style="enable-background:new 0 0 432 432;" xml:space="preserve">
<style type="text/css">
	.st0{fill:#FFFFFF;}
</style>
<g>
	<polygon class="st0" points="216,36.3 288.6,108.9 306.8,90.8 216,0 0,216 42.9,258.9 61,240.7 36.3,216 	"/>
	<polygon class="st0" points="350,134 331.8,152.1 395.8,216 258.5,353.3 125.6,220.4 220.7,125.3 314.6,219.2 261.8,272 210.8,221 
		238.9,192.9 220.7,174.8 192.7,202.9 175.1,220.4 193.2,238.6 244.2,289.6 262.3,307.7 279.9,290.1 332.7,237.3 350.3,219.7 
		332.2,201.6 220.2,89.6 202.6,107.2 107.5,202.3 89.9,219.9 108.1,238 240.9,370.9 216,395.8 78.6,258.3 61,240.7 42.9,258.9 
		60.4,276.4 216,432 432,216 	"/>
</g>
</svg>
