<?xml version="1.0" encoding="utf-8"?>
<!-- Generator: Adobe Illustrator 22.1.0, SVG Export Plug-In . SVG Version: 6.00 Build 0)  -->
<svg version="1.1" id="Calque_1" xmlns="http://www.w3.org/2000/svg" xmlns:xlink="http://www.w3.org/1999/xlink" x="0px" y="0px"
	 viewBox="0 0 264.3 391.5" style="enable-background:new 0 0 264.3 391.5;" xml:space="preserve">
<style type="text/css">
	.st0{fill:#FADE17;}
</style>
<g>
	<path class="st0" d="M132.1,368c-59.9,0-108.7-48.7-108.7-108.6c0-59.9,48.8-108.7,108.7-108.7c59.9,0,108.6,48.7,108.6,108.7
		C240.8,319.3,192,368,132.1,368z M132.1,163.3c-53,0-96.1,43.1-96.1,96.1s43.1,96.1,96.1,96.1c53,0,96.1-43.1,96.1-96.1
		S185.1,163.3,132.1,163.3z"/>
	<path class="st0" d="M162.1,143.4c-0.5,0-1-0.1-1.5-0.2c-18.6-4.5-38.4-4.5-57,0c-1.9,0.5-3.8,0-5.4-1.2c-1.5-1.2-2.4-3-2.4-4.9
		V96.8c0-3.5,2.8-6.3,6.3-6.3h60c3.5,0,6.3,2.8,6.3,6.3v40.3c0,1.9-0.9,3.7-2.4,4.9C164.9,142.9,163.5,143.4,162.1,143.4z
		 M132.1,127.2c8,0,15.9,0.7,23.7,2.1v-26.3h-47.4v26.3C116.2,127.9,124.2,127.2,132.1,127.2z"/>
	<path class="st0" d="M132.1,103.1c-0.3,0-0.6,0-1-0.1c-3.4-0.5-5.7-3.8-5.2-7.2c5.8-36.5,27.9-40.1,45.6-42.9
		c6.3-1,12.2-2,17.5-4.1c3.1-1.3,6.9,0.2,8.2,3.4c1.3,3.2-0.2,6.9-3.4,8.2c-6.6,2.8-13.6,3.9-20.3,5c-17.2,2.8-30.9,4.9-35.2,32.5
		C137.8,100.9,135.2,103.1,132.1,103.1z"/>
	<path class="st0" d="M194.5,40.2c-2.6,0-5-1.6-5.9-4.2l-9.5-27.7c-1.1-3.3,0.6-6.8,3.9-8c3.2-1.1,6.8,0.6,8,3.9l9.5,27.7
		c1.1,3.3-0.6,6.8-3.9,8C195.9,40.1,195.2,40.2,194.5,40.2z"/>
	<path class="st0" d="M213.4,41.9c-1.8,0-3.5-0.8-4.8-2.2c-2.2-2.6-1.9-6.6,0.7-8.8l20.3-17.2c2.7-2.2,6.6-1.9,8.9,0.7
		c2.2,2.6,1.9,6.6-0.7,8.8l-20.3,17.2C216.3,41.4,214.9,41.9,213.4,41.9z"/>
	<path class="st0" d="M242.1,72.4c-0.7,0-1.4-0.1-2.1-0.4l-27.7-9.7c-3.3-1.1-5-4.7-3.8-8c1.2-3.3,4.7-5,8-3.8l27.7,9.7
		c3.3,1.1,5,4.7,3.8,8C247.1,70.8,244.7,72.4,242.1,72.4z"/>
	<path class="st0" d="M132.1,265.6c-3.5,0-6.3-2.8-6.3-6.3v-42.9c0-3.5,2.8-6.3,6.3-6.3c3.5,0,6.3,2.8,6.3,6.3v42.9
		C138.4,262.8,135.6,265.6,132.1,265.6z"/>
	<path class="st0" d="M132.1,265.6c-2.2,0-4.3-1.1-5.4-3.1l-34-58.9c-1.7-3-0.7-6.8,2.3-8.6s6.8-0.7,8.6,2.3l34,58.9
		c1.7,3,0.7,6.8-2.3,8.6C134.3,265.4,133.2,265.6,132.1,265.6z"/>
	<path class="st0" d="M132.1,201.1c-3.5,0-6.3-2.8-6.3-6.3v-11.1c0-3.5,2.8-6.3,6.3-6.3c3.5,0,6.3,2.8,6.3,6.3v11.1
		C138.4,198.3,135.6,201.1,132.1,201.1z"/>
	<path class="st0" d="M207.8,265.6h-11.1c-3.5,0-6.3-2.8-6.3-6.3c0-3.5,2.8-6.3,6.3-6.3h11.1c3.5,0,6.3,2.8,6.3,6.3
		C214,262.8,211.2,265.6,207.8,265.6z"/>
	<path class="st0" d="M132.1,341.3c-3.5,0-6.3-2.8-6.3-6.3v-11.1c0-3.5,2.8-6.3,6.3-6.3c3.5,0,6.3,2.8,6.3,6.3V335
		C138.4,338.5,135.6,341.3,132.1,341.3z"/>
	<path class="st0" d="M67.6,265.6H56.5c-3.5,0-6.3-2.8-6.3-6.3c0-3.5,2.8-6.3,6.3-6.3h11.1c3.5,0,6.3,2.8,6.3,6.3
		C73.8,262.8,71,265.6,67.6,265.6z"/>
	<path class="st0" d="M132.1,391.5C59.3,391.5,0,332.2,0,259.4c0-72.9,59.3-132.1,132.1-132.1c72.9,0,132.1,59.3,132.1,132.1
		C264.3,332.2,205,391.5,132.1,391.5z M132.1,139.8c-65.9,0-119.6,53.6-119.6,119.6c0,65.9,53.6,119.6,119.6,119.6
		c65.9,0,119.6-53.6,119.6-119.6C251.7,193.4,198.1,139.8,132.1,139.8z"/>
</g>
</svg>
