<?xml version="1.0" encoding="utf-8"?>
<!-- Generator: Adobe Illustrator 22.1.0, SVG Export Plug-In . SVG Version: 6.00 Build 0)  -->
<svg version="1.1" id="Layer_1" xmlns="http://www.w3.org/2000/svg" xmlns:xlink="http://www.w3.org/1999/xlink" x="0px" y="0px"
	 viewBox="0 0 512 512" style="enable-background:new 0 0 512 512;" xml:space="preserve">
<style type="text/css">
	.st0{fill:#FADE17;}
</style>
<g transform="translate(0 1)">
	<path class="st0" d="M300.1,502.2c-5.3,0-9.7-0.9-15-3.5c-15-7.1-23.8-23.8-19.4-41.5l15.9-102.4l-53-55.6l-63.6,68
		c-1.8,1.8-3.5,2.6-6.2,2.6H35.3c-9.7,0-18.5-4.4-25.6-10.6c-7.1-7.1-10.6-16.8-9.7-26.5c0.9-18.5,16.8-33.5,37.1-33.5h83
		l134.2-150.1h-20.3L176.6,210c-5.3,6.2-13.2,9.7-22.1,9.7s-16.8-3.5-22.1-9.7c-10.6-11.5-9.7-30.9,1.8-43.3L215.4,89
		c0.9-0.9,2.6-1.8,5.3-1.8h96.2c8.8,0,16.8,3.5,23,8.8l64.4,60c2.6,2.6,6.2,2.6,8.8,0l45.9-46.8c11.5-11.5,31.8-11.5,43.3,0l0.9,0.9
		l0,0c11.5,11.5,11.5,30.9,0,42.4l-75.9,75.9c-11.5,11.5-30.9,11.5-42.4,0l-40.6-40.6L286,246.2l73.3,73.3c1.8,1.8,2.6,5.3,2.6,7.9
		l-27.4,147.4c-2.6,10.6-9.7,19.4-18.5,23.8C310.7,501.3,305.4,502.2,300.1,502.2z M228.6,278c2.6,0,4.4,0.9,6.2,2.6l62.7,65.3
		c1.8,1.8,2.6,4.4,2.6,7.1l-16.8,107.7c-1.8,9.7,1.8,18.5,9.7,22.1c5.3,2.6,10.6,1.8,15,0c4.4-2.6,7.9-7.1,9.7-11.5l26.5-142.1
		l-75.9-75.9c-2.6-2.6-3.5-4.4-3.5-7.1s0.9-4.4,2.6-6.2l70.6-70.6c3.5-3.5,8.8-3.5,12.4,0l46.8,46.8c4.4,4.4,12.4,4.4,17.7,0
		l75.9-75.9c4.4-4.4,4.4-12.4,0-16.8l-0.9-0.9c-4.4-4.4-13.2-4.4-17.7,0l-45.9,46.8c-8.8,8.8-23.8,9.7-33.5,0.9l-64.4-60
		c-2.6-2.6-7.1-4.4-10.6-4.4h-93.6l-78.6,75c-5.3,5.3-5.3,13.2-0.9,18.5c2.6,2.6,6.2,4.4,9.7,4.4l0,0c3.5,0,7.1-1.8,8.8-4.4l60-63.6
		c1.8-1.8,4.4-2.6,6.2-2.6h44.1c3.5,0,7.1,1.8,7.9,5.3s0.9,7.1-1.8,9.7L129.8,315.9c-1.8,0-3.5,0.9-6.2,0.9H37.1
		c-10.6,0-19.4,7.1-19.4,16.8c0,5.3,1.8,9.7,4.4,13.2c3.5,3.5,7.9,5.3,13.2,5.3h120.1l67.1-71.5C223.3,278.8,226,278,228.6,278z"/>
	<path class="st0" d="M406.1,113.8c-29.1,0-53-23.8-53-53s23.8-53,53-53c29.1,0,53,23.8,53,53S435.2,113.8,406.1,113.8z M406.1,25.5
		c-19.4,0-35.3,15.9-35.3,35.3s15.9,35.3,35.3,35.3c19.4,0,35.3-15.9,35.3-35.3S425.5,25.5,406.1,25.5z"/>
</g>
</svg>
